<mxfile host="Electron" modified="2024-05-28T08:49:07.758Z" agent="Mozilla/5.0 (Windows NT 10.0; Win64; x64) AppleWebKit/537.36 (KHTML, like Gecko) draw.io/24.4.0 Chrome/120.0.6099.109 Electron/28.1.0 Safari/537.36" etag="1Jf85MroMBa_XJl_1RNA" version="24.4.0" type="device">
  <diagram name="Page-1" id="memI8j1hN3fhaQ7Ew3Yc">
    <mxGraphModel dx="1036" dy="613" grid="1" gridSize="10" guides="1" tooltips="1" connect="1" arrows="1" fold="1" page="1" pageScale="1" pageWidth="850" pageHeight="1100" math="0" shadow="0">
      <root>
        <mxCell id="0" />
        <mxCell id="1" parent="0" />
        <mxCell id="Dt_xxH28PrfpeGVGY4dK-1" value="" style="rounded=1;whiteSpace=wrap;html=1;fillColor=#dae8fc;strokeColor=#6c8ebf;" vertex="1" parent="1">
          <mxGeometry x="40" y="40" width="410" height="410" as="geometry" />
        </mxCell>
        <mxCell id="Dt_xxH28PrfpeGVGY4dK-3" value="&lt;font style=&quot;font-size: 15px;&quot;&gt;Vehicle Owner&lt;/font&gt;" style="text;html=1;align=center;verticalAlign=middle;whiteSpace=wrap;rounded=0;" vertex="1" parent="1">
          <mxGeometry x="185" y="40" width="105" height="30" as="geometry" />
        </mxCell>
        <mxCell id="Dt_xxH28PrfpeGVGY4dK-66" style="edgeStyle=orthogonalEdgeStyle;rounded=0;orthogonalLoop=1;jettySize=auto;html=1;exitX=1;exitY=0.5;exitDx=0;exitDy=0;entryX=0;entryY=0.5;entryDx=0;entryDy=0;endArrow=blockThin;endFill=0;dashed=1;" edge="1" parent="1" source="Dt_xxH28PrfpeGVGY4dK-4" target="Dt_xxH28PrfpeGVGY4dK-6">
          <mxGeometry relative="1" as="geometry" />
        </mxCell>
        <mxCell id="Dt_xxH28PrfpeGVGY4dK-4" value="Grant access to location" style="ellipse;whiteSpace=wrap;html=1;" vertex="1" parent="1">
          <mxGeometry x="73.75" y="180" width="100" height="50" as="geometry" />
        </mxCell>
        <mxCell id="Dt_xxH28PrfpeGVGY4dK-68" style="edgeStyle=orthogonalEdgeStyle;rounded=0;orthogonalLoop=1;jettySize=auto;html=1;exitX=0.5;exitY=1;exitDx=0;exitDy=0;entryX=0.5;entryY=0;entryDx=0;entryDy=0;dashed=1;endArrow=blockThin;endFill=0;" edge="1" parent="1" source="Dt_xxH28PrfpeGVGY4dK-6" target="Dt_xxH28PrfpeGVGY4dK-7">
          <mxGeometry relative="1" as="geometry" />
        </mxCell>
        <mxCell id="Dt_xxH28PrfpeGVGY4dK-6" value="Get directions to nearest parking lot" style="ellipse;whiteSpace=wrap;html=1;" vertex="1" parent="1">
          <mxGeometry x="266.25" y="180" width="120" height="50" as="geometry" />
        </mxCell>
        <mxCell id="Dt_xxH28PrfpeGVGY4dK-69" style="edgeStyle=orthogonalEdgeStyle;rounded=0;orthogonalLoop=1;jettySize=auto;html=1;exitX=1;exitY=0.5;exitDx=0;exitDy=0;entryX=0;entryY=0.5;entryDx=0;entryDy=0;dashed=1;endArrow=blockThin;endFill=0;" edge="1" parent="1" source="Dt_xxH28PrfpeGVGY4dK-7" target="Dt_xxH28PrfpeGVGY4dK-9">
          <mxGeometry relative="1" as="geometry" />
        </mxCell>
        <mxCell id="Dt_xxH28PrfpeGVGY4dK-7" value="Select an available parking space" style="ellipse;whiteSpace=wrap;html=1;" vertex="1" parent="1">
          <mxGeometry x="65" y="270" width="120" height="50" as="geometry" />
        </mxCell>
        <mxCell id="Dt_xxH28PrfpeGVGY4dK-84" style="edgeStyle=orthogonalEdgeStyle;rounded=0;orthogonalLoop=1;jettySize=auto;html=1;exitX=0.5;exitY=1;exitDx=0;exitDy=0;entryX=1;entryY=0.5;entryDx=0;entryDy=0;dashed=1;endArrow=blockThin;endFill=0;" edge="1" parent="1" source="Dt_xxH28PrfpeGVGY4dK-9" target="Dt_xxH28PrfpeGVGY4dK-82">
          <mxGeometry relative="1" as="geometry" />
        </mxCell>
        <mxCell id="Dt_xxH28PrfpeGVGY4dK-9" value="Park in selected parking space" style="ellipse;whiteSpace=wrap;html=1;" vertex="1" parent="1">
          <mxGeometry x="275" y="270" width="120" height="50" as="geometry" />
        </mxCell>
        <mxCell id="Dt_xxH28PrfpeGVGY4dK-11" value="" style="rounded=1;whiteSpace=wrap;html=1;fillColor=#f8cecc;strokeColor=#b85450;" vertex="1" parent="1">
          <mxGeometry x="450" y="400" width="260" height="160" as="geometry" />
        </mxCell>
        <mxCell id="Dt_xxH28PrfpeGVGY4dK-12" value="&lt;font style=&quot;font-size: 16px;&quot;&gt;Authentication and Authorization&lt;/font&gt;" style="text;html=1;align=center;verticalAlign=middle;whiteSpace=wrap;rounded=0;" vertex="1" parent="1">
          <mxGeometry x="460" y="400" width="240" height="40" as="geometry" />
        </mxCell>
        <mxCell id="Dt_xxH28PrfpeGVGY4dK-46" style="edgeStyle=orthogonalEdgeStyle;rounded=0;orthogonalLoop=1;jettySize=auto;html=1;exitX=0.012;exitY=0.692;exitDx=0;exitDy=0;exitPerimeter=0;entryX=0.5;entryY=0;entryDx=0;entryDy=0;endArrow=blockThin;endFill=0;" edge="1" parent="1" target="Dt_xxH28PrfpeGVGY4dK-15">
          <mxGeometry relative="1" as="geometry">
            <mxPoint x="530" y="479.7999999999999" as="sourcePoint" />
            <mxPoint x="134" y="90" as="targetPoint" />
            <Array as="points">
              <mxPoint x="429" y="480" />
              <mxPoint x="429" y="70" />
              <mxPoint x="134" y="70" />
              <mxPoint x="134" y="100" />
            </Array>
          </mxGeometry>
        </mxCell>
        <mxCell id="Dt_xxH28PrfpeGVGY4dK-13" value="Log In/Sign Up" style="ellipse;whiteSpace=wrap;html=1;" vertex="1" parent="1">
          <mxGeometry x="530" y="455" width="100" height="50" as="geometry" />
        </mxCell>
        <mxCell id="Dt_xxH28PrfpeGVGY4dK-45" style="edgeStyle=orthogonalEdgeStyle;rounded=0;orthogonalLoop=1;jettySize=auto;html=1;exitX=1;exitY=0.5;exitDx=0;exitDy=0;entryX=0;entryY=0.5;entryDx=0;entryDy=0;dashed=1;endArrow=blockThin;endFill=0;" edge="1" parent="1" source="Dt_xxH28PrfpeGVGY4dK-15" target="Dt_xxH28PrfpeGVGY4dK-16">
          <mxGeometry relative="1" as="geometry" />
        </mxCell>
        <mxCell id="Dt_xxH28PrfpeGVGY4dK-15" value="Sign Up" style="ellipse;whiteSpace=wrap;html=1;" vertex="1" parent="1">
          <mxGeometry x="85" y="100" width="100" height="40" as="geometry" />
        </mxCell>
        <mxCell id="Dt_xxH28PrfpeGVGY4dK-65" style="edgeStyle=orthogonalEdgeStyle;rounded=0;orthogonalLoop=1;jettySize=auto;html=1;exitX=0.5;exitY=1;exitDx=0;exitDy=0;dashed=1;endArrow=blockThin;endFill=0;" edge="1" parent="1" source="Dt_xxH28PrfpeGVGY4dK-16" target="Dt_xxH28PrfpeGVGY4dK-4">
          <mxGeometry relative="1" as="geometry" />
        </mxCell>
        <mxCell id="Dt_xxH28PrfpeGVGY4dK-67" style="edgeStyle=orthogonalEdgeStyle;rounded=0;orthogonalLoop=1;jettySize=auto;html=1;exitX=1;exitY=0.5;exitDx=0;exitDy=0;entryX=1;entryY=0.5;entryDx=0;entryDy=0;endArrow=blockThin;endFill=0;dashed=1;" edge="1" parent="1" source="Dt_xxH28PrfpeGVGY4dK-16" target="Dt_xxH28PrfpeGVGY4dK-27">
          <mxGeometry relative="1" as="geometry">
            <Array as="points">
              <mxPoint x="410" y="120" />
              <mxPoint x="410" y="405" />
            </Array>
          </mxGeometry>
        </mxCell>
        <mxCell id="Dt_xxH28PrfpeGVGY4dK-16" value="Log In" style="ellipse;whiteSpace=wrap;html=1;" vertex="1" parent="1">
          <mxGeometry x="270" y="100" width="100" height="40" as="geometry" />
        </mxCell>
        <mxCell id="Dt_xxH28PrfpeGVGY4dK-17" style="edgeStyle=orthogonalEdgeStyle;rounded=0;orthogonalLoop=1;jettySize=auto;html=1;exitX=0.5;exitY=1;exitDx=0;exitDy=0;" edge="1" parent="1" source="Dt_xxH28PrfpeGVGY4dK-15" target="Dt_xxH28PrfpeGVGY4dK-15">
          <mxGeometry relative="1" as="geometry" />
        </mxCell>
        <mxCell id="Dt_xxH28PrfpeGVGY4dK-19" value="" style="rounded=1;whiteSpace=wrap;html=1;fillColor=#d5e8d4;strokeColor=#82b366;" vertex="1" parent="1">
          <mxGeometry x="630" y="75" width="350" height="290" as="geometry" />
        </mxCell>
        <mxCell id="Dt_xxH28PrfpeGVGY4dK-21" value="&lt;font style=&quot;font-size: 15px;&quot;&gt;Parking Manager&lt;/font&gt;" style="text;html=1;align=center;verticalAlign=middle;whiteSpace=wrap;rounded=0;" vertex="1" parent="1">
          <mxGeometry x="730" y="75" width="150" height="30" as="geometry" />
        </mxCell>
        <mxCell id="Dt_xxH28PrfpeGVGY4dK-23" value="Add/remove parking spaces" style="ellipse;whiteSpace=wrap;html=1;" vertex="1" parent="1">
          <mxGeometry x="840" y="130" width="120" height="60" as="geometry" />
        </mxCell>
        <mxCell id="Dt_xxH28PrfpeGVGY4dK-72" style="edgeStyle=orthogonalEdgeStyle;rounded=0;orthogonalLoop=1;jettySize=auto;html=1;exitX=1;exitY=0.5;exitDx=0;exitDy=0;entryX=0;entryY=0.5;entryDx=0;entryDy=0;dashed=1;endArrow=blockThin;endFill=0;" edge="1" parent="1" source="Dt_xxH28PrfpeGVGY4dK-24" target="Dt_xxH28PrfpeGVGY4dK-25">
          <mxGeometry relative="1" as="geometry" />
        </mxCell>
        <mxCell id="Dt_xxH28PrfpeGVGY4dK-24" value="Block parking spaces" style="ellipse;whiteSpace=wrap;html=1;" vertex="1" parent="1">
          <mxGeometry x="655" y="230" width="120" height="50" as="geometry" />
        </mxCell>
        <mxCell id="Dt_xxH28PrfpeGVGY4dK-25" value="Order towing service" style="ellipse;whiteSpace=wrap;html=1;" vertex="1" parent="1">
          <mxGeometry x="830" y="230" width="120" height="50" as="geometry" />
        </mxCell>
        <mxCell id="Dt_xxH28PrfpeGVGY4dK-70" style="edgeStyle=orthogonalEdgeStyle;rounded=0;orthogonalLoop=1;jettySize=auto;html=1;exitX=1;exitY=0.5;exitDx=0;exitDy=0;entryX=0;entryY=0.5;entryDx=0;entryDy=0;dashed=1;endArrow=blockThin;endFill=0;" edge="1" parent="1" source="Dt_xxH28PrfpeGVGY4dK-26" target="Dt_xxH28PrfpeGVGY4dK-23">
          <mxGeometry relative="1" as="geometry">
            <Array as="points">
              <mxPoint x="820" y="130" />
              <mxPoint x="820" y="160" />
            </Array>
          </mxGeometry>
        </mxCell>
        <mxCell id="Dt_xxH28PrfpeGVGY4dK-74" style="edgeStyle=orthogonalEdgeStyle;rounded=0;orthogonalLoop=1;jettySize=auto;html=1;exitX=0.5;exitY=1;exitDx=0;exitDy=0;entryX=0.5;entryY=0;entryDx=0;entryDy=0;dashed=1;endArrow=blockThin;endFill=0;" edge="1" parent="1" source="Dt_xxH28PrfpeGVGY4dK-26" target="Dt_xxH28PrfpeGVGY4dK-24">
          <mxGeometry relative="1" as="geometry" />
        </mxCell>
        <mxCell id="Dt_xxH28PrfpeGVGY4dK-75" style="edgeStyle=orthogonalEdgeStyle;rounded=0;orthogonalLoop=1;jettySize=auto;html=1;exitX=0.5;exitY=0;exitDx=0;exitDy=0;entryX=0.5;entryY=0;entryDx=0;entryDy=0;dashed=1;endArrow=blockThin;endFill=0;" edge="1" parent="1" source="Dt_xxH28PrfpeGVGY4dK-26" target="Dt_xxH28PrfpeGVGY4dK-29">
          <mxGeometry relative="1" as="geometry">
            <Array as="points">
              <mxPoint x="715" y="100" />
              <mxPoint x="805" y="100" />
            </Array>
          </mxGeometry>
        </mxCell>
        <mxCell id="Dt_xxH28PrfpeGVGY4dK-26" value="Log In" style="ellipse;whiteSpace=wrap;html=1;" vertex="1" parent="1">
          <mxGeometry x="660" y="110" width="110" height="40" as="geometry" />
        </mxCell>
        <mxCell id="Dt_xxH28PrfpeGVGY4dK-27" value="View History" style="ellipse;whiteSpace=wrap;html=1;" vertex="1" parent="1">
          <mxGeometry x="240" y="380" width="120" height="50" as="geometry" />
        </mxCell>
        <mxCell id="Dt_xxH28PrfpeGVGY4dK-28" value="" style="rounded=1;whiteSpace=wrap;html=1;fillColor=#e1d5e7;strokeColor=#9673a6;" vertex="1" parent="1">
          <mxGeometry x="62.5" y="590" width="337.5" height="260" as="geometry" />
        </mxCell>
        <mxCell id="Dt_xxH28PrfpeGVGY4dK-29" value="View statistics of their parking lot" style="ellipse;whiteSpace=wrap;html=1;" vertex="1" parent="1">
          <mxGeometry x="745" y="290" width="120" height="60" as="geometry" />
        </mxCell>
        <mxCell id="Dt_xxH28PrfpeGVGY4dK-76" style="edgeStyle=orthogonalEdgeStyle;rounded=0;orthogonalLoop=1;jettySize=auto;html=1;exitX=1;exitY=0.5;exitDx=0;exitDy=0;entryX=0;entryY=0.5;entryDx=0;entryDy=0;dashed=1;endArrow=blockThin;endFill=0;" edge="1" parent="1" source="Dt_xxH28PrfpeGVGY4dK-30" target="Dt_xxH28PrfpeGVGY4dK-33">
          <mxGeometry relative="1" as="geometry" />
        </mxCell>
        <mxCell id="Dt_xxH28PrfpeGVGY4dK-80" style="edgeStyle=orthogonalEdgeStyle;rounded=0;orthogonalLoop=1;jettySize=auto;html=1;exitX=0;exitY=0.5;exitDx=0;exitDy=0;dashed=1;endArrow=blockThin;endFill=0;" edge="1" parent="1" source="Dt_xxH28PrfpeGVGY4dK-30" target="Dt_xxH28PrfpeGVGY4dK-34">
          <mxGeometry relative="1" as="geometry" />
        </mxCell>
        <mxCell id="Dt_xxH28PrfpeGVGY4dK-81" style="edgeStyle=orthogonalEdgeStyle;rounded=0;orthogonalLoop=1;jettySize=auto;html=1;exitX=0.5;exitY=1;exitDx=0;exitDy=0;entryX=0.5;entryY=0;entryDx=0;entryDy=0;dashed=1;endArrow=blockThin;endFill=0;" edge="1" parent="1" source="Dt_xxH28PrfpeGVGY4dK-30" target="Dt_xxH28PrfpeGVGY4dK-32">
          <mxGeometry relative="1" as="geometry">
            <Array as="points">
              <mxPoint x="150" y="700" />
              <mxPoint x="300" y="700" />
            </Array>
          </mxGeometry>
        </mxCell>
        <mxCell id="Dt_xxH28PrfpeGVGY4dK-30" value="Log In" style="ellipse;whiteSpace=wrap;html=1;" vertex="1" parent="1">
          <mxGeometry x="95" y="645" width="110" height="40" as="geometry" />
        </mxCell>
        <mxCell id="Dt_xxH28PrfpeGVGY4dK-31" value="&lt;font style=&quot;font-size: 15px;&quot;&gt;Administrator&lt;/font&gt;" style="text;html=1;align=center;verticalAlign=middle;whiteSpace=wrap;rounded=0;" vertex="1" parent="1">
          <mxGeometry x="173.75" y="600" width="92.5" height="30" as="geometry" />
        </mxCell>
        <mxCell id="Dt_xxH28PrfpeGVGY4dK-32" value="View statistics of all&amp;nbsp; parking lots" style="ellipse;whiteSpace=wrap;html=1;" vertex="1" parent="1">
          <mxGeometry x="240" y="740" width="120" height="50" as="geometry" />
        </mxCell>
        <mxCell id="Dt_xxH28PrfpeGVGY4dK-77" style="edgeStyle=orthogonalEdgeStyle;rounded=0;orthogonalLoop=1;jettySize=auto;html=1;exitX=1;exitY=0.5;exitDx=0;exitDy=0;entryX=1;entryY=0.5;entryDx=0;entryDy=0;dashed=1;endArrow=blockThin;endFill=0;" edge="1" parent="1" source="Dt_xxH28PrfpeGVGY4dK-33" target="Dt_xxH28PrfpeGVGY4dK-13">
          <mxGeometry relative="1" as="geometry" />
        </mxCell>
        <mxCell id="Dt_xxH28PrfpeGVGY4dK-33" value="Add/Remove parking managers" style="ellipse;whiteSpace=wrap;html=1;" vertex="1" parent="1">
          <mxGeometry x="240" y="640" width="120" height="50" as="geometry" />
        </mxCell>
        <mxCell id="Dt_xxH28PrfpeGVGY4dK-34" value="Ban Users" style="ellipse;whiteSpace=wrap;html=1;" vertex="1" parent="1">
          <mxGeometry x="100" y="740" width="100" height="50" as="geometry" />
        </mxCell>
        <mxCell id="Dt_xxH28PrfpeGVGY4dK-37" value="" style="ellipse;shape=cloud;whiteSpace=wrap;html=1;fillColor=#ffe6cc;strokeColor=#d79b00;" vertex="1" parent="1">
          <mxGeometry x="730" y="580" width="340" height="250" as="geometry" />
        </mxCell>
        <mxCell id="Dt_xxH28PrfpeGVGY4dK-38" value="&lt;font style=&quot;font-size: 15px;&quot;&gt;Relying Parties&lt;/font&gt;" style="text;html=1;align=center;verticalAlign=middle;whiteSpace=wrap;rounded=0;" vertex="1" parent="1">
          <mxGeometry x="820" y="630" width="140" height="30" as="geometry" />
        </mxCell>
        <mxCell id="Dt_xxH28PrfpeGVGY4dK-86" style="edgeStyle=orthogonalEdgeStyle;rounded=0;orthogonalLoop=1;jettySize=auto;html=1;exitX=0.5;exitY=0;exitDx=0;exitDy=0;entryX=1;entryY=0.5;entryDx=0;entryDy=0;" edge="1" parent="1" source="Dt_xxH28PrfpeGVGY4dK-43" target="Dt_xxH28PrfpeGVGY4dK-6">
          <mxGeometry relative="1" as="geometry">
            <Array as="points">
              <mxPoint x="855" y="660" />
              <mxPoint x="740" y="660" />
              <mxPoint x="740" y="380" />
              <mxPoint x="500" y="380" />
              <mxPoint x="500" y="205" />
            </Array>
          </mxGeometry>
        </mxCell>
        <mxCell id="Dt_xxH28PrfpeGVGY4dK-87" style="edgeStyle=orthogonalEdgeStyle;rounded=0;orthogonalLoop=1;jettySize=auto;html=1;exitX=0;exitY=0.5;exitDx=0;exitDy=0;entryX=0;entryY=0.5;entryDx=0;entryDy=0;" edge="1" parent="1" source="Dt_xxH28PrfpeGVGY4dK-43" target="Dt_xxH28PrfpeGVGY4dK-4">
          <mxGeometry relative="1" as="geometry">
            <Array as="points">
              <mxPoint x="720" y="705" />
              <mxPoint x="720" y="890" />
              <mxPoint x="54" y="890" />
              <mxPoint x="54" y="205" />
            </Array>
          </mxGeometry>
        </mxCell>
        <mxCell id="Dt_xxH28PrfpeGVGY4dK-43" value="Google Maps API" style="shape=document;whiteSpace=wrap;html=1;boundedLbl=1;size=0.3;" vertex="1" parent="1">
          <mxGeometry x="810" y="680" width="90" height="50" as="geometry" />
        </mxCell>
        <mxCell id="Dt_xxH28PrfpeGVGY4dK-85" style="edgeStyle=orthogonalEdgeStyle;rounded=0;orthogonalLoop=1;jettySize=auto;html=1;exitX=0.5;exitY=0;exitDx=0;exitDy=0;" edge="1" parent="1" source="Dt_xxH28PrfpeGVGY4dK-44" target="Dt_xxH28PrfpeGVGY4dK-82">
          <mxGeometry relative="1" as="geometry">
            <Array as="points">
              <mxPoint x="975" y="570" />
              <mxPoint x="135" y="570" />
            </Array>
          </mxGeometry>
        </mxCell>
        <mxCell id="Dt_xxH28PrfpeGVGY4dK-44" value="Daraja API (M-Pesa Payment)" style="shape=document;whiteSpace=wrap;html=1;boundedLbl=1;" vertex="1" parent="1">
          <mxGeometry x="930" y="680" width="90" height="50" as="geometry" />
        </mxCell>
        <mxCell id="Dt_xxH28PrfpeGVGY4dK-54" style="edgeStyle=orthogonalEdgeStyle;rounded=0;orthogonalLoop=1;jettySize=auto;html=1;exitX=0.5;exitY=0;exitDx=0;exitDy=0;entryX=0;entryY=0.5;entryDx=0;entryDy=0;endArrow=blockThin;endFill=0;" edge="1" parent="1" source="Dt_xxH28PrfpeGVGY4dK-13" target="Dt_xxH28PrfpeGVGY4dK-26">
          <mxGeometry relative="1" as="geometry" />
        </mxCell>
        <mxCell id="Dt_xxH28PrfpeGVGY4dK-57" style="edgeStyle=orthogonalEdgeStyle;rounded=0;orthogonalLoop=1;jettySize=auto;html=1;exitX=0.5;exitY=1;exitDx=0;exitDy=0;endArrow=blockThin;endFill=0;entryX=0.5;entryY=0;entryDx=0;entryDy=0;" edge="1" parent="1" source="Dt_xxH28PrfpeGVGY4dK-13" target="Dt_xxH28PrfpeGVGY4dK-30">
          <mxGeometry relative="1" as="geometry">
            <mxPoint x="580" y="520" as="sourcePoint" />
            <mxPoint x="150" y="660" as="targetPoint" />
            <Array as="points">
              <mxPoint x="580" y="600" />
              <mxPoint x="150" y="600" />
            </Array>
          </mxGeometry>
        </mxCell>
        <mxCell id="Dt_xxH28PrfpeGVGY4dK-79" value="&amp;lt;&amp;lt;Once parking manager has been added&amp;gt;&amp;gt;" style="text;html=1;align=center;verticalAlign=middle;resizable=0;points=[];autosize=1;strokeColor=none;fillColor=none;" vertex="1" parent="1">
          <mxGeometry x="395" y="630" width="260" height="30" as="geometry" />
        </mxCell>
        <mxCell id="Dt_xxH28PrfpeGVGY4dK-82" value="Pay for selected parking space" style="ellipse;whiteSpace=wrap;html=1;" vertex="1" parent="1">
          <mxGeometry x="75" y="340" width="120" height="50" as="geometry" />
        </mxCell>
      </root>
    </mxGraphModel>
  </diagram>
</mxfile>
